<svg xmlns="http://www.w3.org/2000/svg" width="1200" height="675" viewBox="0 0 1200 675"><rect width="1200" height="675" fill="#181A1B"/><text x="78" y="40" fill="#E8E6DF" font-size="22" font-family="ui-monospace, monospace" text-anchor="start" font-weight="700">Canvas vs SVG — per-frame main-thread work as element count scales</text><text x="78" y="60" fill="#7A7872" font-size="14" font-family="ui-monospace, monospace" text-anchor="start">i9-9880H · Chromium 147 · DPR 2 · lower is better</text><line x1="78" y1="590" x2="1110" y2="590" stroke="#2E3133" stroke-width="1"/><text x="66" y="595" fill="#7A7872" font-size="15" font-family="ui-monospace, monospace" text-anchor="end">0</text><line x1="78" y1="515.7142857142858" x2="1110" y2="515.7142857142858" stroke="#2E3133" stroke-width="1"/><text x="66" y="520.7142857142858" fill="#7A7872" font-size="15" font-family="ui-monospace, monospace" text-anchor="end">10</text><line x1="78" y1="441.42857142857144" x2="1110" y2="441.42857142857144" stroke="#2E3133" stroke-width="1"/><text x="66" y="446.42857142857144" fill="#7A7872" font-size="15" font-family="ui-monospace, monospace" text-anchor="end">20</text><line x1="78" y1="367.14285714285717" x2="1110" y2="367.14285714285717" stroke="#2E3133" stroke-width="1"/><text x="66" y="372.14285714285717" fill="#7A7872" font-size="15" font-family="ui-monospace, monospace" text-anchor="end">30</text><line x1="78" y1="292.8571428571429" x2="1110" y2="292.8571428571429" stroke="#2E3133" stroke-width="1"/><text x="66" y="297.8571428571429" fill="#7A7872" font-size="15" font-family="ui-monospace, monospace" text-anchor="end">40</text><line x1="78" y1="218.57142857142856" x2="1110" y2="218.57142857142856" stroke="#2E3133" stroke-width="1"/><text x="66" y="223.57142857142856" fill="#7A7872" font-size="15" font-family="ui-monospace, monospace" text-anchor="end">50</text><line x1="78" y1="144.28571428571433" x2="1110" y2="144.28571428571433" stroke="#2E3133" stroke-width="1"/><text x="66" y="149.28571428571433" fill="#7A7872" font-size="15" font-family="ui-monospace, monospace" text-anchor="end">60</text><line x1="78" y1="70" x2="1110" y2="70" stroke="#2E3133" stroke-width="1"/><text x="66" y="75" fill="#7A7872" font-size="15" font-family="ui-monospace, monospace" text-anchor="end">70</text><text transform="rotate(-90 28 330)" x="28" y="330" fill="#A8A6A0" font-size="15" font-family="ui-monospace, monospace" text-anchor="middle">per-frame work (ms)</text><line x1="78" y1="70" x2="78" y2="590" stroke="#2E3133" stroke-width="1" stroke-dasharray="2 4"/><text x="78" y="614" fill="#7A7872" font-size="15" font-family="ui-monospace, monospace" text-anchor="middle">1</text><line x1="413.15402879406804" y1="70" x2="413.15402879406804" y2="590" stroke="#2E3133" stroke-width="1" stroke-dasharray="2 4"/><text x="413.15402879406804" y="614" fill="#7A7872" font-size="15" font-family="ui-monospace, monospace" text-anchor="middle">10</text><line x1="647.416641753492" y1="70" x2="647.416641753492" y2="590" stroke="#2E3133" stroke-width="1" stroke-dasharray="2 4"/><text x="647.416641753492" y="614" fill="#7A7872" font-size="15" font-family="ui-monospace, monospace" text-anchor="middle">50</text><line x1="748.3080575881361" y1="70" x2="748.3080575881361" y2="590" stroke="#2E3133" stroke-width="1" stroke-dasharray="2 4"/><text x="748.3080575881361" y="614" fill="#7A7872" font-size="15" font-family="ui-monospace, monospace" text-anchor="middle">100</text><line x1="849.1994734227803" y1="70" x2="849.1994734227803" y2="590" stroke="#2E3133" stroke-width="1" stroke-dasharray="2 4"/><text x="849.1994734227803" y="614" fill="#7A7872" font-size="15" font-family="ui-monospace, monospace" text-anchor="middle">200</text><line x1="950.0908892574245" y1="70" x2="950.0908892574245" y2="590" stroke="#2E3133" stroke-width="1" stroke-dasharray="2 4"/><text x="950.0908892574245" y="614" fill="#7A7872" font-size="15" font-family="ui-monospace, monospace" text-anchor="middle">400</text><line x1="1050.9823050920686" y1="70" x2="1050.9823050920686" y2="590" stroke="#2E3133" stroke-width="1" stroke-dasharray="2 4"/><text x="1050.9823050920686" y="614" fill="#7A7872" font-size="15" font-family="ui-monospace, monospace" text-anchor="middle">800</text><line x1="1110" y1="70" x2="1110" y2="590" stroke="#2E3133" stroke-width="1" stroke-dasharray="2 4"/><text x="1110" y="614" fill="#7A7872" font-size="15" font-family="ui-monospace, monospace" text-anchor="middle">1200</text><text x="594" y="659" fill="#A8A6A0" font-size="15" font-family="ui-monospace, monospace" text-anchor="middle">N (telemetry widgets on screen, log scale)</text><line x1="78" y1="465.9428571428571" x2="1110" y2="465.9428571428571" stroke="#9E7CD5" stroke-width="2" stroke-dasharray="7 5"/><text x="1104" y="457.9428571428571" fill="#B6A0DC" font-size="14" font-family="ui-monospace, monospace" text-anchor="end">16.7 ms — 60 fps frame budget</text><polyline points="78.0,586.7 647.4,561.5 748.3,546.8 849.2,511.9 908.2,475.3 950.1,438.2 1009.1,365.1 1051.0,286.8 1083.5,169.5 1110.0,114.7" fill="none" stroke="#E24B4A" stroke-width="3"/><circle cx="78.0" cy="586.7" r="4" fill="#E24B4A"/><circle cx="647.4" cy="561.5" r="4" fill="#E24B4A"/><circle cx="748.3" cy="546.8" r="4" fill="#E24B4A"/><circle cx="849.2" cy="511.9" r="4" fill="#E24B4A"/><circle cx="908.2" cy="475.3" r="4" fill="#E24B4A"/><circle cx="950.1" cy="438.2" r="4" fill="#E24B4A"/><circle cx="1009.1" cy="365.1" r="4" fill="#E24B4A"/><circle cx="1051.0" cy="286.8" r="4" fill="#E24B4A"/><circle cx="1083.5" cy="169.5" r="4" fill="#E24B4A"/><circle cx="1110.0" cy="114.7" r="4" fill="#E24B4A"/><polyline points="78.0,588.4 647.4,576.2 748.3,568.4 849.2,551.5 908.2,536.2 950.1,517.8 1009.1,482.1 1051.0,445.4 1083.5,402.7 1110.0,369.5" fill="none" stroke="#EF9F27" stroke-width="3"/><circle cx="78.0" cy="588.4" r="4" fill="#EF9F27"/><circle cx="647.4" cy="576.2" r="4" fill="#EF9F27"/><circle cx="748.3" cy="568.4" r="4" fill="#EF9F27"/><circle cx="849.2" cy="551.5" r="4" fill="#EF9F27"/><circle cx="908.2" cy="536.2" r="4" fill="#EF9F27"/><circle cx="950.1" cy="517.8" r="4" fill="#EF9F27"/><circle cx="1009.1" cy="482.1" r="4" fill="#EF9F27"/><circle cx="1051.0" cy="445.4" r="4" fill="#EF9F27"/><circle cx="1083.5" cy="402.7" r="4" fill="#EF9F27"/><circle cx="1110.0" cy="369.5" r="4" fill="#EF9F27"/><polyline points="78.0,589.5 647.4,587.1 748.3,585.2 849.2,582.1 908.2,578.0 950.1,575.1 1009.1,573.0 1051.0,568.5 1083.5,564.1 1110.0,559.4" fill="none" stroke="#1D9E75" stroke-width="3"/><circle cx="78.0" cy="589.5" r="4" fill="#1D9E75"/><circle cx="647.4" cy="587.1" r="4" fill="#1D9E75"/><circle cx="748.3" cy="585.2" r="4" fill="#1D9E75"/><circle cx="849.2" cy="582.1" r="4" fill="#1D9E75"/><circle cx="908.2" cy="578.0" r="4" fill="#1D9E75"/><circle cx="950.1" cy="575.1" r="4" fill="#1D9E75"/><circle cx="1009.1" cy="573.0" r="4" fill="#1D9E75"/><circle cx="1051.0" cy="568.5" r="4" fill="#1D9E75"/><circle cx="1083.5" cy="564.1" r="4" fill="#1D9E75"/><circle cx="1110.0" cy="559.4" r="4" fill="#1D9E75"/><line x1="94" y1="86" x2="122" y2="86" stroke="#E24B4A" stroke-width="3"/><circle cx="108" cy="86" r="4" fill="#E24B4A"/><text x="132" y="91" fill="#E8E6DF" font-size="15" font-family="ui-monospace, monospace" text-anchor="start">SVG via React (flushSync/frame)</text><line x1="94" y1="112" x2="122" y2="112" stroke="#EF9F27" stroke-width="3"/><circle cx="108" cy="112" r="4" fill="#EF9F27"/><text x="132" y="117" fill="#E8E6DF" font-size="15" font-family="ui-monospace, monospace" text-anchor="start">SVG imperative (mutate by ref)</text><line x1="94" y1="138" x2="122" y2="138" stroke="#1D9E75" stroke-width="3"/><circle cx="108" cy="138" r="4" fill="#1D9E75"/><text x="132" y="143" fill="#E8E6DF" font-size="15" font-family="ui-monospace, monospace" text-anchor="start">Canvas (rAF, full repaint)</text></svg>